<svg width="7224" height="1308" viewBox="0 0 7224 1308" fill="none" xmlns="http://www.w3.org/2000/svg">
<g opacity="0.2" clip-path="url(#clip0_125_40)">
<path d="M6868.03 329.7H6867.99L6867.95 329.693C6797.48 317.868 6734.22 284.699 6685 237.015C6620.01 174.141 6579.63 85.981 6579.63 -11.5998C6579.63 -168.268 6682 -312.243 6829.66 -333.695C6854.12 -337.251 6902.85 -339.652 6945.43 -341.163C6966.72 -341.92 6986.49 -342.454 7000.94 -342.799C7008.16 -342.971 7014.05 -343.096 7018.14 -343.179L7019.62 -343.208C7020.96 -343.234 7022.05 -343.255 7022.85 -343.27C7023.39 -343.28 7023.81 -343.287 7024.08 -343.292L7024.4 -343.298L7024.48 -343.299L7024.5 -343.3L7024.5 -343.3C7024.5 -343.3 7024.5 -343.3 7024.5 -343.232L7024.5 -343.3H7024.51H7424.93H7425.43V-342.8V-8.87781L7545.75 -207.41L7545.75 -207.411L7553.81 -220.755L7553.81 -220.755L7627.92 -343.059L7627.92 -343.059L7639.54 -362.259L7639.54 -362.259L7900.78 -793.5H6728.38C6455.44 -763.558 6226.94 -594.23 6122.76 -361.795L6122.76 -361.793C6119.88 -355.462 6117.1 -349.037 6114.51 -342.613L6114.51 -342.609C6080.74 -260.876 6062.23 -171.949 6062.23 -78.7998C6062.23 -70.7393 6062.32 -62.7803 6062.71 -54.8239L6062.71 -54.7998L6062.71 -54.7758C6062.32 -46.8193 6062.23 -38.8604 6062.23 -30.7998C6062.23 100.241 6098.87 223.128 6163.05 328.941L6162.62 329.2L6163.05 328.941C6233.66 445.596 6337.56 541.531 6462.27 604.754L6462.76 604.998L6462.48 605.459L6036.89 1307.9H6627.75L7018.9 662.157L7054.23 603.885L7220.33 329.7H6868.03Z" fill="#8C8C8C" fill-opacity="0.02" stroke="white"/>
<path d="M809.36 1590.5H809.402L809.443 1590.49C868.186 1580.64 920.917 1552.99 961.948 1513.24C1016.12 1460.83 1049.78 1387.34 1049.78 1306C1049.78 1175.41 964.453 1055.39 841.352 1037.51C820.96 1034.54 780.35 1032.54 744.868 1031.28C727.12 1030.65 710.646 1030.21 698.608 1029.92C692.59 1029.77 687.68 1029.67 684.275 1029.6C682.572 1029.57 681.246 1029.54 680.345 1029.52C679.895 1029.52 679.551 1029.51 679.319 1029.51L679.057 1029.5L678.991 1029.5L678.974 1029.5L678.97 1029.5C678.969 1029.5 678.969 1029.5 678.96 1030L678.969 1029.5H678.96H345.28H344.78V1030V1307.97L244.668 1142.78L244.668 1142.78L237.948 1131.66L237.948 1131.66L176.188 1029.74L176.188 1029.74L166.508 1013.74L166.507 1013.74L-51.1125 654.5H925.733C1153.15 679.449 1343.54 820.538 1430.34 1014.2L1430.34 1014.21C1432.74 1019.48 1435.06 1024.83 1437.22 1030.19L1437.22 1030.19C1465.35 1098.29 1480.78 1172.39 1480.78 1250C1480.78 1256.72 1480.7 1263.35 1480.38 1269.98L1480.38 1270L1480.38 1270.02C1480.7 1276.65 1480.78 1283.28 1480.78 1290C1480.78 1399.19 1450.25 1501.58 1396.77 1589.74L1397.2 1590L1396.77 1589.74C1337.94 1686.94 1251.37 1766.88 1147.45 1819.55L1146.97 1819.8L1147.25 1820.26L1501.83 2405.5H1009.64L683.708 1867.42L654.268 1818.86L515.927 1590.5H809.36Z" fill="#8C8C8C" fill-opacity="0.02" stroke="white"/>
<path d="M5445.36 1525.5H5445.4L5445.44 1525.51C5504.19 1535.36 5556.92 1563.01 5597.95 1602.76C5652.12 1655.17 5685.78 1728.66 5685.78 1810C5685.78 1940.59 5600.45 2060.61 5477.35 2078.49C5456.96 2081.46 5416.35 2083.46 5380.87 2084.72C5363.12 2085.35 5346.65 2085.79 5334.61 2086.08C5328.59 2086.23 5323.68 2086.33 5320.27 2086.4C5318.57 2086.43 5317.25 2086.46 5316.35 2086.48C5315.89 2086.48 5315.55 2086.49 5315.32 2086.49L5315.06 2086.5L5314.99 2086.5L5314.97 2086.5L5314.97 2086.5C5314.97 2086.5 5314.97 2086.5 5314.96 2086L5314.97 2086.5H5314.96H4981.28H4980.78V2086V1808.03L4880.67 1973.22L4880.67 1973.22L4873.95 1984.34L4873.95 1984.34L4812.19 2086.26L4812.19 2086.26L4802.51 2102.26L4802.51 2102.26L4584.89 2461.5H5561.73C5789.15 2436.55 5979.54 2295.46 6066.34 2101.8L6066.34 2101.79C6068.74 2096.52 6071.06 2091.17 6073.22 2085.81L6073.22 2085.81C6101.35 2017.71 6116.78 1943.61 6116.78 1866C6116.78 1859.28 6116.7 1852.65 6116.38 1846.02L6116.38 1846L6116.38 1845.98C6116.7 1839.35 6116.78 1832.72 6116.78 1826C6116.78 1716.81 6086.25 1614.42 6032.77 1526.26L6033.2 1526L6032.77 1526.26C5973.94 1429.06 5887.37 1349.12 5783.45 1296.45L5782.97 1296.2L5783.25 1295.74L6137.83 710.5H5645.64L5319.71 1248.58L5290.27 1297.14L5151.93 1525.5H5445.36Z" fill="#8C8C8C" fill-opacity="0.02" stroke="white"/>
<path d="M5445.36 -221.5H5445.4L5445.44 -221.507C5504.19 -231.364 5556.92 -259.013 5597.95 -298.761C5652.12 -351.171 5685.78 -424.659 5685.78 -506C5685.78 -636.588 5600.45 -756.611 5477.35 -774.495C5456.96 -777.46 5416.35 -779.46 5380.87 -780.72C5363.12 -781.35 5346.65 -781.795 5334.61 -782.082C5328.59 -782.226 5323.68 -782.331 5320.27 -782.399C5318.57 -782.433 5317.25 -782.458 5316.35 -782.475C5315.89 -782.483 5315.55 -782.49 5315.32 -782.494L5315.06 -782.498L5314.99 -782.5L5314.97 -782.5L5314.97 -782.5C5314.97 -782.5 5314.97 -782.5 5314.96 -782L5314.97 -782.5H5314.96H4981.28H4980.78V-782V-504.03L4880.67 -669.219L4880.67 -669.219L4873.95 -680.339L4873.95 -680.339L4812.19 -782.259L4812.19 -782.259L4802.51 -798.259L4802.51 -798.259L4584.89 -1157.5H5561.73C5789.15 -1132.55 5979.54 -991.462 6066.34 -797.796L6066.34 -797.793C6068.74 -792.519 6071.06 -787.165 6073.22 -781.813L6073.22 -781.809C6101.35 -713.708 6116.78 -639.613 6116.78 -562C6116.78 -555.284 6116.7 -548.653 6116.38 -542.024L6116.38 -542L6116.38 -541.976C6116.7 -535.347 6116.78 -528.716 6116.78 -522C6116.78 -412.815 6086.25 -310.424 6032.77 -222.259L6033.2 -222L6032.77 -222.259C5973.94 -125.061 5887.37 -45.1246 5783.45 7.55408L5782.97 7.79785L5783.25 8.25903L6137.83 593.5H5645.64L5319.71 55.4211L5290.27 6.86096L5151.93 -221.5H5445.36Z" fill="#8C8C8C" fill-opacity="0.02" stroke="white"/>
</g>
<defs>
<clipPath id="clip0_125_40">
<rect width="7224" height="1308" fill="white"/>
</clipPath>
</defs>
</svg>
