<svg width="28" height="28" viewBox="0 0 28 28" fill="none" xmlns="http://www.w3.org/2000/svg">
<path d="M19.8333 11.6666H22.1666C24.4999 11.6666 25.6666 10.5 25.6666 8.16665V5.83331C25.6666 3.49998 24.4999 2.33331 22.1666 2.33331H19.8333C17.4999 2.33331 16.3333 3.49998 16.3333 5.83331V8.16665C16.3333 10.5 17.4999 11.6666 19.8333 11.6666Z" stroke="#9099AC" stroke-width="1.5" stroke-miterlimit="10" stroke-linecap="round" stroke-linejoin="round"/>
<path d="M5.83325 25.6666H8.16659C10.4999 25.6666 11.6666 24.5 11.6666 22.1666V19.8333C11.6666 17.5 10.4999 16.3333 8.16659 16.3333H5.83325C3.49992 16.3333 2.33325 17.5 2.33325 19.8333V22.1666C2.33325 24.5 3.49992 25.6666 5.83325 25.6666Z" stroke="#9099AC" stroke-width="1.5" stroke-miterlimit="10" stroke-linecap="round" stroke-linejoin="round"/>
<path d="M6.99992 11.6666C9.57725 11.6666 11.6666 9.57731 11.6666 6.99998C11.6666 4.42265 9.57725 2.33331 6.99992 2.33331C4.42259 2.33331 2.33325 4.42265 2.33325 6.99998C2.33325 9.57731 4.42259 11.6666 6.99992 11.6666Z" stroke="#9099AC" stroke-width="1.5" stroke-miterlimit="10" stroke-linecap="round" stroke-linejoin="round"/>
<path d="M20.9999 25.6666C23.5772 25.6666 25.6666 23.5773 25.6666 21C25.6666 18.4227 23.5772 16.3333 20.9999 16.3333C18.4226 16.3333 16.3333 18.4227 16.3333 21C16.3333 23.5773 18.4226 25.6666 20.9999 25.6666Z" stroke="#9099AC" stroke-width="1.5" stroke-miterlimit="10" stroke-linecap="round" stroke-linejoin="round"/>
</svg>
