<svg width="14" height="14" viewBox="0 0 14 14" fill="none" xmlns="http://www.w3.org/2000/svg">
<path d="M7.09768 6.19439C6.16493 6.31099 7.73015 6.64066 6.55753 6.05436C6.16313 5.85716 5.44452 5.737 5.02711 5.64424C4.71603 5.57511 3.54967 4.78343 4.30692 5.20412C4.8254 5.49217 5.27831 5.7354 5.6973 6.15438C6.10828 6.56537 7.32631 6.14295 7.59781 5.65425C7.71778 5.4383 7.66426 5.24949 7.80787 5.03408C8.01018 4.73062 7.79569 5.83647 7.5378 6.09437C6.8754 6.75676 6.33556 7.5215 5.75731 8.26495C5.46099 8.64594 5.55709 9.39535 5.11714 9.61532" stroke="#377DFF" stroke-width="8" stroke-linecap="round"/>
<path d="M8.35791 7.45474C8.47232 8.14119 8.97104 8.60802 9.4382 9.07518" stroke="#377DFF" stroke-width="8" stroke-linecap="round"/>
<path d="M7.61084 5.50093C7.8372 5.50093 8.35279 5.05899 8.12643 5.05899" stroke="#377DFF" stroke-width="8" stroke-linecap="round"/>
<path d="M7.83154 5.20628C7.97693 5.06089 8.09279 4.85469 8.27348 4.76434" stroke="#377DFF" stroke-width="8" stroke-linecap="round"/>
<path d="M8.4209 4.10146C8.52318 4.10146 8.5586 4.08331 8.64187 4.0278" stroke="#377DFF" stroke-width="8" stroke-linecap="round"/>
</svg>
