<svg width="60" height="60" viewBox="0 0 60 60" fill="none" xmlns="http://www.w3.org/2000/svg">
<path d="M49.9717 28.929C49.7572 24.8628 48.3282 21.1186 46.0407 18.0524C45.4372 18.7102 44.6962 19.4245 43.7392 20.229C41.4702 22.1364 38.7217 23.8577 35.4585 25.2525C35.8745 26.1265 36.2572 26.9747 36.594 27.7745L36.597 27.7812C36.663 27.9355 36.7197 28.0765 36.8302 28.3545C36.8447 28.3905 36.8582 28.4242 36.8712 28.4562C40.6552 28.0305 44.644 28.1872 48.5122 28.7112C49.0265 28.7807 49.5125 28.8537 49.9717 28.929ZM26.511 10.3033C26.9457 10.9155 27.4005 11.5715 27.9507 12.3844C29.4822 14.6472 30.99 17.0348 32.401 19.4877C32.6872 19.9854 32.9675 20.4822 33.241 20.9778C36.2982 19.7748 38.824 18.257 40.8595 16.5621C41.6827 15.8766 42.3457 15.2325 42.8507 14.6743C39.3752 11.7569 34.8927 10 30 10C28.81 10 27.644 10.104 26.511 10.3033ZM10.6316 24.9939C12.0786 24.9613 13.7117 24.8735 15.7326 24.6879C19.7506 24.3189 23.8535 23.6562 27.8872 22.6318C26.4297 20.093 24.8472 17.5583 23.2363 15.1344C22.462 13.9694 21.7089 12.8748 21.1371 12.066C15.9885 14.6153 12.0948 19.3164 10.6316 24.9939ZM14.4591 42.59C15.4278 41.1732 16.7015 39.5785 18.3949 37.8435C22.03 34.1195 26.3215 31.2195 31.2847 29.6182C31.3542 29.5977 31.401 29.584 31.44 29.5725C31.0275 28.6627 30.6405 27.8512 30.2507 27.0855C25.6607 28.4217 20.8257 29.2575 16.007 29.6905C13.658 29.9015 11.5501 29.9952 10 30.011C10.0025 34.778 11.6729 39.155 14.4591 42.59ZM37.5112 48.5415C37.2502 47.1862 36.9172 45.6765 36.4747 43.935C35.6722 40.778 34.667 37.53 33.4325 34.2695C28.428 36.0857 24.4393 38.7435 21.3577 41.9122C19.8726 43.4392 18.7811 44.8842 18.066 46.0507C21.3973 48.5317 25.5272 50 30 50C32.6565 50 35.1922 49.482 37.5112 48.5415ZM42.1945 45.8535C46.0182 42.908 48.7462 38.61 49.663 33.6757C48.8132 33.4662 47.735 33.2512 46.549 33.0865C43.939 32.7242 41.2535 32.6637 38.6022 33.0045C39.7332 36.191 40.6605 39.333 41.402 42.3402C41.7257 43.6535 41.9895 44.8395 42.1945 45.8535ZM30 55C16.1929 55 5 43.807 5 30C5 16.1929 16.1929 5 30 5C43.807 5 55 16.1929 55 30C55 43.807 43.807 55 30 55Z" fill="white"/>
</svg>
