<svg width="72" height="72" viewBox="0 0 72 72" fill="none" xmlns="http://www.w3.org/2000/svg">
<path d="M15 18C15 11.3726 20.3726 6 27 6H45C51.6273 6 57 11.3726 57 18C57 21.5841 55.4286 24.8012 52.9374 27C55.4286 29.1988 57 32.4159 57 36C57 42.6273 51.6273 48 45 48C42.8142 48 40.7649 47.4156 39 46.3947V54C39 60.6273 33.6273 66 27 66C20.3726 66 15 60.6273 15 54C15 50.4159 16.5713 47.1987 19.0625 45C16.5713 42.8013 15 39.5841 15 36C15 32.4159 16.5713 29.1988 19.0625 27C16.5713 24.8012 15 21.5841 15 18ZM33 30H27C23.6863 30 21 32.6862 21 36C21 39.3138 23.6863 42 27 42H33V30ZM39 36C39 39.3138 41.6862 42 45 42C48.3138 42 51 39.3138 51 36C51 32.6862 48.3138 30 45 30C41.6862 30 39 32.6862 39 36ZM45 24C48.3138 24 51 21.3137 51 18C51 14.6863 48.3138 12 45 12H39V24H45ZM27 12C23.6863 12 21 14.6863 21 18C21 21.3137 23.6863 24 27 24H33V12H27ZM33 48H27C23.6863 48 21 50.6862 21 54C21 57.3138 23.6863 60 27 60C30.3138 60 33 57.3138 33 54V48Z" fill="white"/>
</svg>
