<svg width="28" height="28" viewBox="0 0 28 28" fill="none" xmlns="http://www.w3.org/2000/svg">
<path d="M19.8333 26.5416H8.16658C3.02159 26.5416 1.45825 24.9783 1.45825 19.8333V8.16665C1.45825 3.02165 3.02159 1.45831 8.16658 1.45831H9.91658C11.9583 1.45831 12.5999 2.12331 13.4166 3.20831L15.1666 5.54165C15.5516 6.05498 15.6099 6.12498 16.3333 6.12498H19.8333C24.9783 6.12498 26.5416 7.68831 26.5416 12.8333V19.8333C26.5416 24.9783 24.9783 26.5416 19.8333 26.5416ZM8.16658 3.20831C3.98992 3.20831 3.20825 4.00165 3.20825 8.16665V19.8333C3.20825 23.9983 3.98992 24.7916 8.16658 24.7916H19.8333C24.0099 24.7916 24.7916 23.9983 24.7916 19.8333V12.8333C24.7916 8.66831 24.0099 7.87498 19.8333 7.87498H16.3333C14.8399 7.87498 14.3499 7.36165 13.7666 6.59165L12.0166 4.25831C11.4099 3.45331 11.2233 3.20831 9.91658 3.20831H8.16658Z" fill="#C4CBDA"/>
<path d="M23.3333 8.31831C22.8549 8.31831 22.4583 7.92165 22.4583 7.44331V5.83331C22.4583 3.98998 21.6766 3.20831 19.8333 3.20831H9.33325C8.85492 3.20831 8.45825 2.81165 8.45825 2.33331C8.45825 1.85498 8.85492 1.45831 9.33325 1.45831H19.8333C22.6566 1.45831 24.2083 3.00998 24.2083 5.83331V7.44331C24.2083 7.92165 23.8116 8.31831 23.3333 8.31831Z" fill="#C4CBDA"/>
</svg>
