<svg width="60" height="60" viewBox="0 0 60 60" fill="none" xmlns="http://www.w3.org/2000/svg">
<path d="M14.71 46.6332C13.9601 46.1315 13.3147 45.4937 12.5598 44.5922C12.2868 44.2662 11.1821 42.881 11.3953 43.1457C10.2383 41.7082 9.5074 41.0425 8.7539 40.7722C7.45425 40.3062 6.7785 38.8747 7.2446 37.5752C7.7107 36.2755 9.14213 35.5997 10.4418 36.0657C12.3234 36.7407 13.5962 37.9027 15.3106 40.0357C15.0756 39.7435 16.1591 41.1025 16.3933 41.3822C16.8696 41.951 17.2183 42.2955 17.4907 42.4777C18.003 42.8207 18.9613 42.9685 20.3677 42.8277C20.4266 41.8722 20.6034 40.9457 20.873 40.0895C13.4524 38.276 9.2529 33.488 9.2529 24.0993C9.2529 21.0021 10.176 18.2098 11.8979 15.8695C11.3538 13.6348 11.4358 10.9321 12.6523 7.89091C12.9313 7.19348 13.509 6.65846 14.2258 6.43381C14.4311 6.37433 14.5448 6.34788 14.747 6.31683C16.7542 6.00858 19.5893 6.74263 23.2862 9.05841C25.4525 8.54698 27.7213 8.28751 30.003 8.28751C32.2823 8.28751 34.549 8.54651 36.7135 9.05693C40.4048 6.72501 43.2465 5.99123 45.268 6.31628C45.4798 6.35033 45.6613 6.39458 45.8123 6.44416C46.5148 6.67478 47.079 7.20448 47.3535 7.89091C48.5698 10.9314 48.652 13.6336 48.1083 15.868C49.8355 18.2084 50.753 20.9802 50.753 24.0993C50.753 33.492 46.5675 38.262 39.147 40.08C39.4593 41.1175 39.624 42.2762 39.624 43.5302C39.624 45.1912 39.6178 46.7775 39.606 48.5562C39.603 49.0317 39.5993 49.5397 39.5938 50.3202C40.5323 50.5272 41.3073 51.2692 41.5078 52.2722C41.7785 53.626 40.9005 54.9432 39.5465 55.214C36.6985 55.7835 34.5883 53.8845 34.5883 51.4027C34.5883 51.177 34.59 50.8542 34.5938 50.2862C34.5995 49.5037 34.603 48.9975 34.6063 48.5235C34.6178 46.7548 34.624 45.179 34.624 43.5302C34.624 41.787 34.166 40.6505 33.5593 40.1275C31.9068 38.703 32.7443 35.9932 34.9125 35.7497C42.3285 34.9165 45.753 32.0443 45.753 24.0993C45.753 21.7127 44.9733 19.7393 43.4703 18.089C42.8253 17.3808 42.6418 16.3665 42.9975 15.4772C43.4118 14.4416 43.5885 13.0846 43.2353 11.4426L43.2118 11.4492C41.982 11.7972 40.436 12.5495 38.5653 13.8213C37.955 14.236 37.193 14.36 36.483 14.1603C34.4323 13.5836 32.2283 13.2875 30.003 13.2875C27.7775 13.2875 25.5735 13.5836 23.5229 14.1603C22.8166 14.359 22.0586 14.2373 21.4499 13.8275C19.5685 12.561 18.014 11.8095 16.777 11.4594C16.4184 13.0924 16.5954 14.4446 17.0084 15.4772C17.3641 16.3665 17.1805 17.3808 16.5356 18.089C15.0429 19.728 14.2529 21.7344 14.2529 24.0993C14.2529 32.029 17.6806 34.9207 25.0575 35.7497C27.2208 35.9927 28.0615 38.6922 26.4188 40.1205C25.9378 40.539 25.346 41.9505 25.346 43.5302V51.4027C25.346 53.8685 23.2589 55.7172 20.447 55.225C19.0869 54.987 18.1773 53.6915 18.4153 52.3315C18.5957 51.301 19.3833 50.529 20.346 50.319V47.8452C18.0707 47.9985 16.1914 47.6245 14.71 46.6332Z" fill="white"/>
</svg>
