<svg width="60" height="60" viewBox="0 0 60 60" fill="none" xmlns="http://www.w3.org/2000/svg">
<path d="M17.3512 12.4998C17.3503 14.5356 16.1152 16.3676 14.2284 17.1318C12.3415 17.8961 10.1797 17.4401 8.76225 15.9789C7.34482 14.5176 6.95487 12.3429 7.77625 10.4802C8.59765 8.61747 10.4664 7.43875 12.5012 7.49982C15.2039 7.58095 17.3524 9.79592 17.3512 12.4998ZM17.5012 21.1998H7.5012V52.4998H17.5012V21.1998ZM33.3013 21.1998H23.3512V52.4998H33.2013V36.0748C33.2013 26.9248 45.1263 26.0748 45.1263 36.0748V52.4998H55.0013V32.6748C55.0013 17.2498 37.3513 17.8248 33.2013 25.3998L33.3013 21.1998Z" fill="white"/>
</svg>
