<svg width="67" height="66" viewBox="0 0 67 66" fill="none" xmlns="http://www.w3.org/2000/svg">
<path d="M16.1435 53.7231C18.7057 55.4361 23.1734 56.789 27.4601 55.8061C34.6742 54.1517 38.8338 49.4706 40.4703 42.3689C41.6487 49.5162 39.3277 55.2471 33.3996 59.6153C34.8861 59.4507 36.252 59.1752 37.5869 58.7726C38.9316 58.3668 40.2633 57.9104 41.6699 57.454C41.564 57.6137 41.4971 57.7295 41.4173 57.8338C38.7507 61.3169 35.424 63.9966 31.5235 65.9851C40.9886 65.012 48.131 60.3814 53.0843 52.2806C52.4144 56.1256 50.9459 59.6316 48.8074 62.8719C55.1104 58.476 58.8837 52.468 60.3147 44.9377C60.9146 47.5195 61.0775 50.1193 60.9586 52.7761C61.8713 51.3466 62.7629 49.9253 63.5062 48.4274C66.1026 43.1986 66.8736 37.6698 66.044 31.9096C65.5273 28.3254 64.4124 24.9221 62.8199 21.6753C61.384 18.7479 59.6562 16.008 57.4412 13.5989C57.3368 13.4865 57.2195 13.3854 57.0728 13.2469C56.2562 22.0632 47.5654 25.7387 41.797 23.6214C44.0349 23.3769 46.0235 22.7038 47.7854 21.4357C49.562 20.1562 50.8741 18.5083 51.7364 16.4937C52.5937 14.4873 52.8382 12.3977 52.4992 10.2576C52.0917 7.68064 50.9508 5.446 49.0046 3.70197C47.7202 2.55123 46.294 1.56349 44.5598 0.999534C44.5598 2.01824 44.2745 2.86418 43.7106 3.62699C43.2069 4.3083 42.493 4.70438 41.8052 5.14772C40.0367 6.28542 39.3489 8.29024 40.0383 10.2674C40.0677 10.3505 40.0742 10.4401 40.1068 10.5999C39.8378 10.5004 39.6341 10.4271 39.4304 10.3488C38.3025 9.92017 37.1957 9.42467 36.045 9.07424C31.4209 7.6676 26.7087 7.32532 21.933 8.08487C20.704 8.28046 19.4473 8.47605 18.2885 8.90146C15.6398 9.87291 13.2943 11.3431 11.4281 13.524C10.2871 14.8572 8.89677 15.9167 7.23913 16.5214C6.11447 16.9322 4.94092 17.263 3.76084 17.4619C1.7658 17.7977 0.174984 19.571 0.0087304 21.8154C-0.032018 22.368 0.0625184 22.9075 0.448813 23.2873C1.00625 23.8366 1.62889 24.3255 2.25478 24.7966C2.46667 24.9563 2.60848 25.0965 2.67531 25.3606C3.01596 26.6922 3.79507 27.7109 5.0762 28.2015C5.74122 28.4558 5.92703 28.7867 5.84227 29.4387C5.79174 29.8201 5.86672 30.2161 5.88465 30.6057C5.93192 30.6171 5.98082 30.6285 6.02808 30.6383C6.68495 30.1835 6.97834 29.4028 7.56022 28.7476C7.54881 29.8168 7.36137 30.785 7.63031 31.8281C7.84546 31.6505 7.99542 31.5674 8.09158 31.4418C8.53656 30.8583 8.98316 30.2748 9.39227 29.6668C9.56831 29.4044 9.75738 29.2365 10.0736 29.1942C10.9114 29.0833 11.7443 28.9187 12.5853 28.8437C16.8492 28.4574 20.8475 29.3295 24.5132 31.5396C29.4649 34.5273 32.5162 38.9102 33.7908 44.5384C33.9228 45.1219 33.9913 45.7201 34.0874 46.3134L33.9847 46.3395C33.944 46.258 33.9049 46.1748 33.8625 46.0933C33.2855 44.9654 32.3353 44.3803 31.1112 44.1765C30.7363 44.1146 30.5407 44.2368 30.3875 44.5987C29.8659 45.8228 29.1683 46.9344 28.1365 47.8048C28.0322 47.8928 27.9083 47.958 27.8024 48.0297C27.7584 46.998 27.716 46.0184 27.6736 45.0404C27.6247 45.0404 27.5758 45.0371 27.5269 45.0355C27.4569 45.2425 27.3868 45.4479 27.315 45.6549C26.9336 46.7665 26.3941 47.7966 25.6656 48.7175C25.5417 48.874 25.2842 48.9995 25.0837 49.0044C24.2769 49.0289 23.5092 48.817 22.8148 48.416C22.3878 48.1699 21.9786 47.8618 21.6298 47.513C20.7937 46.6752 20.6731 45.619 21.2321 44.5742C21.7244 43.655 21.5712 42.7406 20.8083 42.4733C20.2835 42.2891 19.6967 42.157 19.1474 42.1848C17.2241 42.2793 15.6936 43.6664 15.335 45.6565C14.9161 47.9792 15.6855 50.0084 17.0693 51.8356C17.4376 52.323 17.9071 52.7337 18.339 53.1901C17.6104 53.3677 16.8769 53.547 16.1435 53.7263V53.7231ZM38.9984 9.00578C39.0408 8.90798 39.0506 8.89657 39.0506 8.88353C39.0506 8.7727 39.0457 8.66186 39.0441 8.55103C39.0098 7.08897 39.5396 5.87141 40.6544 4.92442C41.1499 4.5039 41.6846 4.12738 42.1817 3.70849C42.8646 3.13149 42.9445 2.65718 42.4441 1.91067C41.8215 0.979974 40.969 0.34104 39.8607 0.0900298C39.2071 -0.0566645 38.5632 -0.0354753 37.8933 0.238354C37.9862 0.32474 38.0319 0.375269 38.0857 0.417647C39.5265 1.57164 39.9014 3.74109 38.9968 5.13957C38.8338 5.39058 38.7295 5.68886 38.6398 5.97899C38.3155 7.01726 38.4035 8.00989 39.0017 9.00578H38.9984Z" fill="white"/>
</svg>
