<svg width="72" height="72" viewBox="0 0 72 72" fill="none" xmlns="http://www.w3.org/2000/svg">
<path d="M43.344 48.7182C41.6427 51.1236 39.8799 53.3142 38.1045 55.2438C43.1214 60.1125 47.7873 62.3925 50.376 60.8979C52.9647 59.4033 53.3232 54.2226 51.6153 47.4435C49.0563 48.0162 46.278 48.4476 43.344 48.7182ZM39.414 48.9795C38.2923 49.026 37.1535 49.0497 36.0009 49.0497C34.8483 49.0497 33.7095 49.026 32.5881 48.9795C33.7182 50.4564 34.8624 51.8247 36.0009 53.0715C37.1394 51.8247 38.2836 50.4564 39.414 48.9795ZM54.5361 25.2983C62.5302 27.5915 67.7511 31.4016 67.7511 35.9997C67.7511 40.5975 62.5302 44.4078 54.5361 46.701C56.5473 54.7707 55.8579 61.197 51.876 63.4959C47.8941 65.7948 41.9841 63.1785 36.0009 57.402C30.018 63.1785 24.1079 65.7948 20.126 63.4959C16.1441 61.197 15.4547 54.7707 17.4659 46.701C9.47173 44.4078 4.25098 40.5975 4.25098 35.9997C4.25098 31.4016 9.47173 27.5915 17.4659 25.2983C15.4547 17.2286 16.1441 10.8023 20.126 8.50329C24.1079 6.20433 30.018 8.82057 36.0009 14.5971C41.9841 8.82057 47.8941 6.20433 51.876 8.50329C55.8579 10.8023 56.5473 17.2286 54.5361 25.2983ZM51.6153 24.5558C53.3232 17.7767 52.9647 12.596 50.376 11.1014C47.7873 9.60678 43.1214 11.8866 38.1045 16.7553C39.8799 18.6849 41.6427 20.8755 43.344 23.2809C46.278 23.5516 49.0563 23.983 51.6153 24.5558ZM20.3866 47.4435C18.6787 54.2226 19.0373 59.4033 21.626 60.8979C24.2147 62.3925 28.8806 60.1125 33.8976 55.2438C32.1219 53.3142 30.3591 51.1236 28.6579 48.7182C25.724 48.4476 22.9455 48.0162 20.3866 47.4435ZM32.5881 23.0197C33.7095 22.9733 34.8483 22.9496 36.0009 22.9496C37.1535 22.9496 38.2923 22.9733 39.414 23.0197C38.2836 21.5429 37.1394 20.1744 36.0009 18.9277C34.8624 20.1744 33.7182 21.5429 32.5881 23.0197ZM28.6579 23.2809C30.3591 20.8755 32.1219 18.6849 33.8976 16.7553C28.8806 11.8866 24.2147 9.60678 21.626 11.1014C19.0373 12.596 18.6787 17.7767 20.3866 24.5558C22.9455 23.983 25.724 23.5516 28.6579 23.2809ZM41.6817 45.8391C42.7185 44.3184 43.7316 42.7098 44.7045 41.0247C45.6774 39.3393 46.5639 37.6578 47.3625 35.9997C46.5639 34.3413 45.6774 32.6598 44.7045 30.9747C43.7316 29.2893 42.7185 27.6808 41.6817 26.1602C39.8463 26.0226 37.947 25.9496 36.0009 25.9496C34.0551 25.9496 32.1555 26.0226 30.3201 26.1602C29.2834 27.6808 28.2704 29.2893 27.2974 30.9747C26.3244 32.6598 25.4379 34.3413 24.6394 35.9997C25.4379 37.6578 26.3244 39.3393 27.2974 41.0247C28.2704 42.7098 29.2834 44.3184 30.3201 45.8391C32.1555 45.9765 34.0551 46.0497 36.0009 46.0497C37.947 46.0497 39.8463 45.9765 41.6817 45.8391ZM45.5355 45.4452C47.3796 45.2049 49.1367 44.8983 50.7858 44.5356C50.2752 42.9261 49.6623 41.2512 48.9483 39.534C48.4278 40.5285 47.8788 41.5263 47.3025 42.5247C46.7262 43.5228 46.1364 44.4972 45.5355 45.4452ZM26.4665 26.554C24.6224 26.7944 22.8652 27.101 21.2162 27.4636C21.7267 29.073 22.3398 30.7482 23.0536 32.4654C23.5742 31.4709 24.123 30.4728 24.6993 29.4746C25.2757 28.4764 25.8656 27.5021 26.4665 26.554ZM21.2162 44.5356C22.8652 44.8983 24.6224 45.2049 26.4665 45.4452C25.8656 44.4972 25.2757 43.5228 24.6993 42.5247C24.123 41.5263 23.5742 40.5285 23.0536 39.534C22.3398 41.2512 21.7267 42.9261 21.2162 44.5356ZM18.2832 43.8C19.0665 41.2977 20.0822 38.6757 21.3147 35.9997C20.0822 33.3234 19.0665 30.7017 18.2832 28.1991C11.5584 30.1095 7.25098 33.0105 7.25098 35.9997C7.25098 38.9886 11.5584 41.8896 18.2832 43.8ZM50.7858 27.4636C49.1367 27.101 47.3796 26.7944 45.5355 26.554C46.1364 27.5021 46.7262 28.4764 47.3025 29.4746C47.8788 30.4728 48.4278 31.4709 48.9483 32.4654C49.6623 30.7482 50.2752 29.073 50.7858 27.4636ZM53.7189 28.1991C52.9353 30.7017 51.9198 33.3234 50.6871 35.9997C51.9198 38.6757 52.9353 41.2977 53.7189 43.8C60.4437 41.8896 64.7511 38.9886 64.7511 35.9997C64.7511 33.0105 60.4437 30.1095 53.7189 28.1991ZM36.0009 41.637C32.8875 41.637 30.3636 39.1131 30.3636 35.9997C30.3636 32.886 32.8875 30.3621 36.0009 30.3621C39.1146 30.3621 41.6385 32.886 41.6385 35.9997C41.6385 39.1131 39.1146 41.637 36.0009 41.637Z" fill="white"/>
</svg>
