<svg width="72" height="72" viewBox="0 0 72 72" fill="none" xmlns="http://www.w3.org/2000/svg">
<g clip-path="url(#clip0_118_255)">
<path d="M50.6405 45.3201C54.3674 51.4417 58.0496 57.4834 62.0002 63.9779C59.4365 63.9779 57.2621 63.9779 55.0832 63.9779C52.5554 63.9779 50.0231 64.0489 47.4997 63.929C46.8107 63.8979 45.8622 63.4762 45.5221 62.9302C40.538 54.8998 35.6299 46.8161 30.7174 38.7412C30.6189 38.577 30.6458 38.3373 30.5787 37.8978C33.2452 37.8978 35.8178 37.9111 38.3949 37.8978C42.1487 37.8756 45.4416 35.5628 46.7749 32.0425C48.1037 28.5356 47.1015 24.2429 44.2157 21.9834C43.209 21.1977 41.8623 20.4297 40.6454 20.3853C35.4554 20.2122 30.2565 20.3098 24.8563 20.3098V28.1538C24.5789 28.2293 24.6058 28.2248 24.3329 28.3003C20.2972 21.6948 16.2571 14.9651 12.0112 8.01779C13.1298 7.96896 13.9127 8.02667 14.6912 8.02667C23.6125 8.01779 32.5383 8.01335 41.4597 8.02667C50.4481 8.03554 58.1972 13.7621 60.5953 22.1432C63.1053 30.9194 59.6379 39.7889 51.8172 44.5698C51.4503 44.7962 51.0924 45.0315 50.636 45.3201H50.6405Z" fill="white"/>
<path d="M19.2502 64C13.586 64.0178 9.01345 59.5387 9.00003 53.9587C8.98661 48.5029 13.6754 43.8907 19.2725 43.8551C24.7085 43.8241 29.2945 48.3742 29.3482 53.861C29.4063 59.481 24.9233 63.9778 19.2502 63.9956V64Z" fill="white"/>
</g>
<defs>
<clipPath id="clip0_118_255">
<rect width="53" height="56" fill="white" transform="translate(9 8)"/>
</clipPath>
</defs>
</svg>
