<svg width="18" height="18" viewBox="0 0 18 18" fill="none" xmlns="http://www.w3.org/2000/svg">
<path d="M8.96016 11.84C7.41456 11.84 6.16016 10.5856 6.16016 9.03999C6.16016 7.49439 7.41456 6.23999 8.96016 6.23999C10.5058 6.23999 11.7602 7.49439 11.7602 9.03999C11.7602 10.5856 10.5058 11.84 8.96016 11.84ZM8.96016 7.35999C8.03429 7.35999 7.28016 8.11412 7.28016 9.03999C7.28016 9.96586 8.03429 10.72 8.96016 10.72C9.88602 10.72 10.6402 9.96586 10.6402 9.03999C10.6402 8.11412 9.88602 7.35999 8.96016 7.35999Z" fill="#9099AC"/>
<path d="M11.3571 16.6485C11.2003 16.6485 11.0435 16.6261 10.8867 16.5888C10.4237 16.4619 10.0355 16.1707 9.78906 15.76L9.69946 15.6107C9.25893 14.8491 8.65413 14.8491 8.21359 15.6107L8.13146 15.7525C7.88506 16.1707 7.49679 16.4693 7.03386 16.5888C6.56346 16.7157 6.07813 16.6485 5.66746 16.4021L4.38319 15.6629C3.92773 15.4016 3.59919 14.976 3.45733 14.4608C3.32293 13.9456 3.39013 13.4155 3.65146 12.96C3.86799 12.5792 3.92773 12.2357 3.80079 12.0192C3.67386 11.8027 3.35279 11.6757 2.91226 11.6757C1.82213 11.6757 0.933594 10.7872 0.933594 9.69705V8.38292C0.933594 7.29279 1.82213 6.40425 2.91226 6.40425C3.35279 6.40425 3.67386 6.27732 3.80079 6.06079C3.92773 5.84425 3.87546 5.50079 3.65146 5.11999C3.39013 4.66452 3.32293 4.12692 3.45733 3.61919C3.59173 3.10399 3.92026 2.67839 4.38319 2.41705L5.67493 1.67785C6.51866 1.17759 7.63119 1.46879 8.13893 2.32745L8.22853 2.47679C8.66906 3.23839 9.27386 3.23839 9.71439 2.47679L9.79653 2.33492C10.3043 1.46879 11.4168 1.17759 12.268 1.68532L13.5523 2.42452C14.0077 2.68585 14.3363 3.11145 14.4781 3.62665C14.6125 4.14185 14.5453 4.67199 14.284 5.12745C14.0675 5.50825 14.0077 5.85172 14.1347 6.06825C14.2616 6.28479 14.5827 6.41172 15.0232 6.41172C16.1133 6.41172 17.0019 7.30025 17.0019 8.39039V9.70452C17.0019 10.7947 16.1133 11.6832 15.0232 11.6832C14.5827 11.6832 14.2616 11.8101 14.1347 12.0267C14.0077 12.2432 14.06 12.5867 14.284 12.9675C14.5453 13.4229 14.62 13.9605 14.4781 14.4683C14.3437 14.9835 14.0152 15.4091 13.5523 15.6704L12.2605 16.4096C11.9768 16.5664 11.6707 16.6485 11.3571 16.6485ZM8.96026 13.8859C9.62479 13.8859 10.2445 14.304 10.6701 15.0432L10.7523 15.1851C10.8419 15.3419 10.9912 15.4539 11.1704 15.4987C11.3496 15.5435 11.5288 15.5211 11.6781 15.4315L12.9699 14.6848C13.164 14.5728 13.3133 14.3861 13.3731 14.1621C13.4328 13.9381 13.4029 13.7067 13.2909 13.5125C12.8653 12.7808 12.8131 12.0267 13.1416 11.4517C13.4701 10.8768 14.1496 10.5483 15.0008 10.5483C15.4787 10.5483 15.8595 10.1675 15.8595 9.68959V8.37545C15.8595 7.90505 15.4787 7.51679 15.0008 7.51679C14.1496 7.51679 13.4701 7.18825 13.1416 6.61332C12.8131 6.03839 12.8653 5.28425 13.2909 4.55252C13.4029 4.35839 13.4328 4.12692 13.3731 3.90292C13.3133 3.67892 13.1715 3.49972 12.9773 3.38025L11.6856 2.64105C11.3645 2.44692 10.9389 2.55892 10.7448 2.88745L10.6627 3.02932C10.2371 3.76852 9.61733 4.18665 8.95279 4.18665C8.28826 4.18665 7.66853 3.76852 7.24293 3.02932L7.16079 2.87999C6.97413 2.56639 6.55599 2.45439 6.23493 2.64105L4.94319 3.38772C4.74906 3.49972 4.59973 3.68639 4.53999 3.91039C4.48026 4.13439 4.51013 4.36585 4.62213 4.55999C5.04773 5.29172 5.09999 6.04585 4.77146 6.62079C4.44293 7.19572 3.76346 7.52425 2.91226 7.52425C2.43439 7.52425 2.05359 7.90505 2.05359 8.38292V9.69705C2.05359 10.1675 2.43439 10.5557 2.91226 10.5557C3.76346 10.5557 4.44293 10.8843 4.77146 11.4592C5.09999 12.0341 5.04773 12.7883 4.62213 13.52C4.51013 13.7141 4.48026 13.9456 4.53999 14.1696C4.59973 14.3936 4.74159 14.5728 4.93573 14.6923L6.22746 15.4315C6.38426 15.5285 6.57093 15.5509 6.74266 15.5061C6.92186 15.4613 7.07119 15.3419 7.16826 15.1851L7.25039 15.0432C7.67599 14.3115 8.29573 13.8859 8.96026 13.8859Z" fill="#9099AC"/>
</svg>
