<svg width="38" height="41" viewBox="0 0 38 41" fill="none" xmlns="http://www.w3.org/2000/svg">
<g clip-path="url(#clip0_36_552)">
<path d="M29.7824 27.2184C32.448 31.6312 35.0816 35.9864 37.9072 40.668C36.0736 40.668 34.5184 40.668 32.96 40.668C31.152 40.668 29.3408 40.7192 27.536 40.6328C27.0432 40.6104 26.3648 40.3064 26.1216 39.9128C22.5568 34.124 19.0464 28.2968 15.5328 22.476C15.4624 22.3576 15.4816 22.1848 15.4336 21.868C17.3408 21.868 19.1808 21.8776 21.024 21.868C23.7088 21.852 26.064 20.1848 27.0176 17.6472C27.968 15.1192 27.2512 12.0248 25.1872 10.396C24.4672 9.8296 23.504 9.276 22.6336 9.244C18.9216 9.1192 15.2032 9.1896 11.3408 9.1896V14.844C11.1424 14.8984 11.1616 14.8952 10.9664 14.9496C8.07996 10.188 5.19036 5.3368 2.15356 0.328805C2.95356 0.293605 3.51356 0.335205 4.07036 0.335205C10.4512 0.328805 16.8352 0.325605 23.216 0.335205C29.6448 0.341605 35.1872 4.4696 36.9024 10.5112C38.6976 16.8376 36.2176 23.2312 30.624 26.6776C30.3616 26.8408 30.1056 27.0104 29.7792 27.2184H29.7824Z" fill="white"/>
<path d="M7.33122 40.684C3.28002 40.6968 0.00962056 37.468 2.05598e-05 33.4456C-0.00957944 29.5128 3.34402 26.188 7.34722 26.1624C11.2352 26.14 14.5152 29.42 14.5536 33.3752C14.5952 37.4264 11.3888 40.668 7.33122 40.6808V40.684Z" fill="#377DFF"/>
</g>
<defs>
<clipPath id="clip0_36_552">
<rect width="37.9072" height="40.368" fill="white" transform="translate(0 0.316002)"/>
</clipPath>
</defs>
</svg>
